<svg width="35" height="40" viewBox="0 0 35 40" fill="none" xmlns="http://www.w3.org/2000/svg">
  <path d="M8.75 22.5C6.42936 22.5 4.20376 23.4219 2.56282 25.0628C0.921872 26.7038 0 28.9294 0 31.25C0 33.5706 0.921872 35.7962 2.56282 37.4372C4.20376 39.0781 6.42936 40 8.75 40H26.25C28.5706 40 30.7962 39.0781 32.4372 37.4372C34.0781 35.7962 35 33.5706 35 31.25C35 28.9294 34.0781 26.7038 32.4372 25.0628C30.7962 23.4219 28.5706 22.5 26.25 22.5H8.75ZM26.25 37.5C24.5924 37.5 23.0027 36.8415 21.8306 35.6694C20.6585 34.4973 20 32.9076 20 31.25C20 29.5924 20.6585 28.0027 21.8306 26.8306C23.0027 25.6585 24.5924 25 26.25 25C27.9076 25 29.4973 25.6585 30.6694 26.8306C31.8415 28.0027 32.5 29.5924 32.5 31.25C32.5 32.9076 31.8415 34.4973 30.6694 35.6694C29.4973 36.8415 27.9076 37.5 26.25 37.5ZM8.75 2.5C7.0924 2.5 5.50269 3.15848 4.33058 4.33058C3.15848 5.50269 2.5 7.0924 2.5 8.75C2.5 10.4076 3.15848 11.9973 4.33058 13.1694C5.50269 14.3415 7.0924 15 8.75 15C10.4076 15 11.9973 14.3415 13.1694 13.1694C14.3415 11.9973 15 10.4076 15 8.75C15 7.0924 14.3415 5.50269 13.1694 4.33058C11.9973 3.15848 10.4076 2.5 8.75 2.5ZM14.875 2.5C15.7063 3.3148 16.3666 4.28727 16.8173 5.36047C17.2681 6.43366 17.5002 7.586 17.5 8.75C17.5002 9.914 17.2681 11.0663 16.8173 12.1395C16.3666 13.2127 15.7063 14.1852 14.875 15H26.25C27.9076 15 29.4973 14.3415 30.6694 13.1694C31.8415 11.9973 32.5 10.4076 32.5 8.75C32.5 7.0924 31.8415 5.50269 30.6694 4.33058C29.4973 3.15848 27.9076 2.5 26.25 2.5H14.875ZM8.75 0H26.25C28.5706 0 30.7962 0.921872 32.4372 2.56282C34.0781 4.20376 35 6.42936 35 8.75C35 11.0706 34.0781 13.2962 32.4372 14.9372C30.7962 16.5781 28.5706 17.5 26.25 17.5H8.75C6.42936 17.5 4.20376 16.5781 2.56282 14.9372C0.921872 13.2962 0 11.0706 0 8.75C0 6.42936 0.921872 4.20376 2.56282 2.56282C4.20376 0.921872 6.42936 0 8.75 0Z" fill="white"/>
</svg>
