<svg width="64" height="64" viewBox="0 0 64 64" fill="none" xmlns="http://www.w3.org/2000/svg">
  <circle cx="32" cy="32" r="32" fill="#EBFFFB"/>
  <path d="M23.75 34.5C21.4294 34.5 19.2038 35.4219 17.5628 37.0628C15.9219 38.7038 15 40.9294 15 43.25C15 45.5706 15.9219 47.7962 17.5628 49.4372C19.2038 51.0781 21.4294 52 23.75 52H41.25C43.5706 52 45.7962 51.0781 47.4372 49.4372C49.0781 47.7962 50 45.5706 50 43.25C50 40.9294 49.0781 38.7038 47.4372 37.0628C45.7962 35.4219 43.5706 34.5 41.25 34.5H23.75ZM41.25 49.5C39.5924 49.5 38.0027 48.8415 36.8306 47.6694C35.6585 46.4973 35 44.9076 35 43.25C35 41.5924 35.6585 40.0027 36.8306 38.8306C38.0027 37.6585 39.5924 37 41.25 37C42.9076 37 44.4973 37.6585 45.6694 38.8306C46.8415 40.0027 47.5 41.5924 47.5 43.25C47.5 44.9076 46.8415 46.4973 45.6694 47.6694C44.4973 48.8415 42.9076 49.5 41.25 49.5ZM23.75 14.5C22.0924 14.5 20.5027 15.1585 19.3306 16.3306C18.1585 17.5027 17.5 19.0924 17.5 20.75C17.5 22.4076 18.1585 23.9973 19.3306 25.1694C20.5027 26.3415 22.0924 27 23.75 27C25.4076 27 26.9973 26.3415 28.1694 25.1694C29.3415 23.9973 30 22.4076 30 20.75C30 19.0924 29.3415 17.5027 28.1694 16.3306C26.9973 15.1585 25.4076 14.5 23.75 14.5ZM29.875 14.5C30.7063 15.3148 31.3666 16.2873 31.8173 17.3605C32.2681 18.4337 32.5002 19.586 32.5 20.75C32.5002 21.914 32.2681 23.0663 31.8173 24.1395C31.3666 25.2127 30.7063 26.1852 29.875 27H41.25C42.9076 27 44.4973 26.3415 45.6694 25.1694C46.8415 23.9973 47.5 22.4076 47.5 20.75C47.5 19.0924 46.8415 17.5027 45.6694 16.3306C44.4973 15.1585 42.9076 14.5 41.25 14.5H29.875ZM23.75 12H41.25C43.5706 12 45.7962 12.9219 47.4372 14.5628C49.0781 16.2038 50 18.4294 50 20.75C50 23.0706 49.0781 25.2962 47.4372 26.9372C45.7962 28.5781 43.5706 29.5 41.25 29.5H23.75C21.4294 29.5 19.2038 28.5781 17.5628 26.9372C15.9219 25.2962 15 23.0706 15 20.75C15 18.4294 15.9219 16.2038 17.5628 14.5628C19.2038 12.9219 21.4294 12 23.75 12Z" fill="#0B3C49"/>
</svg>
